<svg width="14" height="16" viewBox="0 0 14 16" fill="none" xmlns="http://www.w3.org/2000/svg">
<path d="M4.70909 1.63C4.70909 1.41333 4.73109 1.28333 5.10242 1.28333H10.0791C10.9458 1.28333 11.4258 2.02333 11.7724 3.412L12.0524 4.52267H12.8991C13.0524 1.37067 13.1858 0 13.1858 0C13.1858 0 11.0551 0.24 9.79242 0.24H3.42642L0.0170898 0.130667V1.044L1.16709 1.26133C1.97376 1.42133 2.16709 1.592 2.23376 2.332C2.23376 2.332 2.30709 4.512 2.30709 8.092C2.30709 11.682 2.24709 13.832 2.24709 13.832C2.24709 14.4807 1.98709 14.7207 1.18709 14.8807L0.0390898 15.1007V16L3.45909 15.89H9.15909C10.4491 15.89 13.4191 16 13.4191 16C13.4891 15.22 13.9191 11.68 13.9891 11.2907H13.1891L12.3331 13.2307C11.6631 14.7507 10.6824 14.8607 9.59309 14.8607H6.32242C5.23576 14.8607 4.71242 14.434 4.71242 13.494V8.53333C4.71242 8.53333 7.12576 8.53333 7.90576 8.59733C8.51376 8.64 8.88109 8.814 9.07909 9.66267L9.33909 10.7927H10.2791L10.2191 7.94067L10.3471 5.07067H9.41976L9.11976 6.33067C8.93109 7.16 8.79976 7.31067 7.95042 7.39733C6.83976 7.51067 4.74042 7.49067 4.74042 7.49067V1.63333H4.70709L4.70909 1.63Z" fill="#333333"/>
</svg>
