<svg width="24" height="14" viewBox="0 0 24 14" fill="none" xmlns="http://www.w3.org/2000/svg">
<path fill-rule="evenodd" clip-rule="evenodd" d="M21.3625 9.75753C21.3625 9.75753 23.3029 11.6739 23.7829 12.5607C23.7922 12.5735 23.7995 12.5877 23.8045 12.6027C24.0001 12.9303 24.0481 13.1871 23.9521 13.3767C23.7901 13.6899 23.2417 13.8471 23.0557 13.8603H19.6261C19.3873 13.8603 18.8905 13.7979 18.2857 13.3803C17.8237 13.0575 17.3641 12.5259 16.9189 12.0063C16.2541 11.2347 15.6793 10.5651 15.0973 10.5651C15.0238 10.565 14.9508 10.5771 14.8813 10.6011C14.4409 10.7403 13.8817 11.3679 13.8817 13.0395C13.8817 13.5627 13.4689 13.8603 13.1797 13.8603H11.6089C11.0737 13.8603 8.28731 13.6731 5.81651 11.0679C2.78891 7.87833 0.0697081 1.47993 0.0433081 1.42353C-0.125892 1.00953 0.229308 0.783927 0.613308 0.783927H4.07651C4.54091 0.783927 4.69211 1.06473 4.79771 1.31673C4.92011 1.60593 5.37371 2.76273 6.11771 4.06233C7.32251 6.17673 8.06291 7.03713 8.65451 7.03713C8.76566 7.03745 8.87492 7.00848 8.97131 6.95313C9.74411 6.52833 9.60011 3.76833 9.56411 3.19953C9.56411 3.08913 9.56291 1.96713 9.16691 1.42473C8.88371 1.03593 8.40131 0.884726 8.10971 0.829526C8.18771 0.716726 8.35331 0.543926 8.56571 0.441926C9.09491 0.177926 10.0513 0.139526 11.0005 0.139526H11.5273C12.5569 0.153926 12.8233 0.219926 13.1977 0.314726C13.9513 0.494726 13.9657 0.983127 13.8997 2.64633C13.8805 3.12153 13.8601 3.65673 13.8601 4.28673C13.8601 4.42113 13.8541 4.57113 13.8541 4.72353C13.8313 5.57673 13.8013 6.53793 14.4037 6.93273C14.4818 6.9814 14.5721 7.00718 14.6641 7.00713C14.8729 7.00713 15.4981 7.00713 17.1937 4.09713C17.9377 2.81193 18.5137 1.29633 18.5533 1.18233C18.5869 1.11873 18.6877 0.939926 18.8101 0.867926C18.8972 0.821601 18.9947 0.798459 19.0933 0.800727H23.1673C23.6113 0.800727 23.9125 0.867927 23.9713 1.03593C24.0697 1.30833 23.9521 2.13993 22.0921 4.65513C21.7789 5.07393 21.5041 5.43633 21.2629 5.75313C19.5769 7.96593 19.5769 8.07753 21.3625 9.75753Z" fill="#333333"/>
</svg>
